# xmcd
#
# Track frame offsets: 
#        150
#        11991
#        24094
#        35385
#        47844
#        60180
#        72088
#        84679
#        97086
#        109941
#        122831
#        136508
#        150304
#        163011
#        174951
#        187720
#        199600
#        209416
#        222784
#        234682
#        246678
#        258797
#        268950
#        282046
#        293564
#
# Disc length: 4061 seconds
#
# Revision: 9
# Processed by: cddbd v1.5.2PL0 Copyright (c) Steve Scherf et al.
# Submitted via: ExactAudioCopyFreeDBPlugin 1.0
#
DISCID=5a0fdb19
DTITLE=Various Artist - Doughboys, Playboys and Cowboys [disc 4]
DYEAR=1999
DGENRE=Swing
TTITLE0=Cliff Bruner and His Boys - Draftboard Blues
TTITLE1=The Hi-Flyers - Whatcha Gonna Do
TTITLE2=Adolph Hofner and His San Antonians - Cotton Eyed Joe
TTITLE3=Sons of the West - Sally's Got a Wooden Leg
TTITLE4=The Sunshine Boys - What's the Matter with Deep Elem
TTITLE5=Bob Wills and His Texas Playboys - Lil Liza Jane
TTITLE6=Al Dexter and His Troopers - Pistol Packin' Mama
TTITLE7=Spade Cooley and His Orchestra - Forgive Me One More Time
TTITLE8=Spade Cooley and His Orchestra - Shame on You
TTITLE9=Hank Penny - Steel Guitar Stomp
TTITLE10=Porky Freeman - Boogie Woogie Boy
TTITLE11=Cliff Bruner - That's What I Like About the South
TTITLE12=Bob Wills and His Texas Playboys - Stay a Little Longer
TTITLE13=Zeke Clements and His Western Swing Gang - Oklahoma Blues
TTITLE14=Spade Cooley and His Orchestra - Oklahoma Stomp
TTITLE15=Jerry Irby and His Texas Ranchers - Nails in My Coffin
TTITLE16=Luke Wills' Rhythm Busters - Bob Wills Two Step
TTITLE17=Tex Williams and His Western Caravan - I Got Texas in My Soul
TTITLE18=Hank Penny - Wildcat Mama
TTITLE19=Jesse Ashlock - Betty Ann
TTITLE20=Don Churchill and His Texas Mavericks - One Year Ago Tonight
TTITLE21=Johnny Tyler and His Riders of the Rio Grande - Oakie Boogie
TTITLE22=Tex Williams and His Western Caravan - Smoke Smoke Smoke (That 
TTITLE22=Cigarette)
TTITLE23=Johnnie Lee Wills and His Boys - Square Dance Boogie
TTITLE24=Hank Thompson - Humpty Dumpty Heart
EXTD=
EXTT0=
EXTT1=
EXTT2=
EXTT3=
EXTT4=
EXTT5=
EXTT6=
EXTT7=
EXTT8=
EXTT9=
EXTT10=
EXTT11=
EXTT12=
EXTT13=
EXTT14=
EXTT15=
EXTT16=
EXTT17=
EXTT18=
EXTT19=
EXTT20=
EXTT21=
EXTT22=
EXTT23=
EXTT24=
PLAYORDER=
